{
  "accessors": [
    {
      "bufferView": 2,
      "componentType": 5126,
      "count": 920,
      "max": [
        1.6153789758682251,
        0.99746197462081909,
        0.86204183101654053
      ],
      "min": [
        -1.2790576219558716,
        -1.751587986946106,
        -1.0261526107788086
      ],
      "type": "VEC3"
    },
    {
      "bufferView": 2,
      "byteOffset": 11040,
      "componentType": 5126,
      "count": 920,
      "max": [
        0.99899840354919434,
        0.99997127056121826,
        0.99999409914016724
      ],
      "min": [
        -0.99453771114349365,
        -0.99866181612014771,
        -0.9998098611831665
      ],
      "type": "VEC3"
    },
    {
      "bufferView": 3,
      "componentType": 5126,
      "count": 920,
      "max": [
        0.95591640472412109,
        0.99937784671783447,
        0.9979327917098999,
        1
      ],
      "min": [
        -0.97687560319900513,
        -0.99994075298309326,
        -0.9994855523109436,
        1
      ],
      "type": "VEC4"
    },
    {
      "bufferView": 1,
      "componentType": 5126,
      "count": 920,
      "max": [
        0.998046875,
        0.998046875
      ],
      "min": [
        0.0019531850703060627,
        0.1072540283203125
      ],
      "type": "VEC2"
    },
    {
      "bufferView": 0,
      "componentType": 5125,
      "count": 5424,
      "max": [
        919
      ],
      "min": [
        0
      ],
      "type": "SCALAR"
    }
  ],
  "asset": {
    "extras": {
      "author": "orkunsevengil (https://sketchfab.com/orkunsevengil)",
      "license": "CC-BY-4.0 (http://creativecommons.org/licenses/by/4.0/)",
      "source": "https://sketchfab.com/models/3a99888fea90471ebb9bc2938a66e052",
      "title": "Glacier"
    },
    "generator": "Sketchfab-3.19.6",
    "version": "2.0"
  },
  "bufferViews": [
    {
      "buffer": 0,
      "byteLength": 21696,
      "byteOffset": 0,
      "name": "floatBufferViews",
      "target": 34963
    },
    {
      "buffer": 0,
      "byteLength": 7360,
      "byteOffset": 21696,
      "byteStride": 8,
      "name": "floatBufferViews",
      "target": 34962
    },
    {
      "buffer": 0,
      "byteLength": 22080,
      "byteOffset": 29056,
      "byteStride": 12,
      "name": "floatBufferViews",
      "target": 34962
    },
    {
      "buffer": 0,
      "byteLength": 14720,
      "byteOffset": 51136,
      "byteStride": 16,
      "name": "floatBufferViews",
      "target": 34962
    }
  ],
  "buffers": [
    {
      "byteLength": 65856,
      "uri": "scene.bin"
    }
  ],
  "images": [
    {
      "uri": "textures/01_-_Default_metallicRoughness.png"
    },
    {
      "uri": "textures/01_-_Default_normal.png"
    },
    {
      "uri": "textures/01_-_Default_baseColor.png"
    }
  ],
  "materials": [
    {
      "doubleSided": true,
      "emissiveFactor": [
        0.070000000000000007,
        0.070000000000000007,
        0.070000000000000007
      ],
      "name": "01_-_Default",
      "normalTexture": {
        "index": 1,
        "scale": 1,
        "texCoord": 0
      },
      "occlusionTexture": {
        "index": 0,
        "strength": 1,
        "texCoord": 0
      },
      "pbrMetallicRoughness": {
        "baseColorFactor": [
          1,
          1,
          1,
          1
        ],
        "baseColorTexture": {
          "index": 2,
          "texCoord": 0
        },
        "metallicFactor": 0.099275914600000001,
        "metallicRoughnessTexture": {
          "index": 0,
          "texCoord": 0
        },
        "roughnessFactor": 0.60537347559999999
      }
    }
  ],
  "meshes": [
    {
      "name": "Glacier_lp_01 - Default_0",
      "primitives": [
        {
          "attributes": {
            "NORMAL": 1,
            "POSITION": 0,
            "TANGENT": 2,
            "TEXCOORD_0": 3
          },
          "indices": 4,
          "material": 0,
          "mode": 4
        }
      ]
    }
  ],
  "nodes": [
    {
      "children": [
        1
      ],
      "name": "RootNode (gltf orientation matrix)",
      "rotation": [
        -0.70710678118654746,
        -0,
        -0,
        0.70710678118654757
      ]
    },
    {
      "children": [
        2
      ],
      "name": "RootNode (model correction matrix)"
    },
    {
      "children": [
        3
      ],
      "matrix": [
        1,
        0,
        0,
        0,
        0,
        0,
        1,
        0,
        0,
        -1,
        0,
        0,
        0,
        0,
        0,
        1
      ],
      "name": "glacier.FBX"
    },
    {
      "children": [
        4
      ],
      "name": "RootNode"
    },
    {
      "children": [
        5
      ],
      "matrix": [
        7.403378963470459,
        0,
        0,
        0,
        0,
        1.6438803570540859e-15,
        -7.403378963470459,
        0,
        0,
        7.403378963470459,
        1.6438803570540859e-15,
        0,
        0,
        0,
        0,
        1
      ],
      "name": "Glacier_lp"
    },
    {
      "mesh": 0,
      "name": "Glacier_lp_01 - Default_0"
    }
  ],
  "samplers": [
    {
      "magFilter": 9729,
      "minFilter": 9987,
      "wrapS": 10497,
      "wrapT": 10497
    }
  ],
  "scene": 0,
  "scenes": [
    {
      "name": "OSG_Scene",
      "nodes": [
        0
      ]
    }
  ],
  "textures": [
    {
      "sampler": 0,
      "source": 0
    },
    {
      "sampler": 0,
      "source": 1
    },
    {
      "sampler": 0,
      "source": 2
    }
  ]
}

